<svg xmlns="http://www.w3.org/2000/svg" viewBox="0 0 500 500"><g id="freepik--Floor--inject-8"><polygon points="41.54 441.28 93.66 441.03 145.77 440.94 250 440.78 354.23 440.94 406.34 441.03 458.46 441.28 406.34 441.52 354.23 441.61 250 441.77 145.77 441.61 93.66 441.52 41.54 441.28" style="fill:#263238"></polygon></g><g id="freepik--credit-card--inject-8"><path d="M394.14,195.81l-2.81,59.51a6,6,0,0,1-6.3,5.74l-94.39-4.44a6,6,0,0,1-5.73-6.31l2.8-59.51a5.61,5.61,0,0,1,5.87-5.34l95.22,4.48A5.62,5.62,0,0,1,394.14,195.81Z" style="fill:#263238"></path><path d="M376.39,246.21a5.55,5.55,0,1,1-5.28-5.8A5.55,5.55,0,0,1,376.39,246.21Z" style="fill:#dbdbdb"></path><path d="M383.21,246.53a5.55,5.55,0,1,1-5.28-5.8A5.54,5.54,0,0,1,383.21,246.53Z" style="fill:#008D6A"></path><rect x="296.1" y="196.3" width="20" height="13.82" rx="4.2" transform="translate(9.9 -14.18) rotate(2.7)" style="fill:#008D6A"></rect><path d="M381.26,207.42l-9-.43a3.79,3.79,0,0,1-3.61-4h0a3.8,3.8,0,0,1,4-3.61l9,.42a3.79,3.79,0,0,1,3.6,4h0A3.79,3.79,0,0,1,381.26,207.42Z" style="fill:#fff"></path><rect x="294.39" y="238.56" width="50.6" height="2.49" transform="translate(11.64 -14.78) rotate(2.7)" style="fill:#dbdbdb"></rect><rect x="294.14" y="243.73" width="35.82" height="2.49" transform="translate(11.87 -14.41) rotate(2.7)" style="fill:#dbdbdb"></rect><rect x="340.04" y="198.48" width="25.23" height="2.49" transform="translate(9.79 -16.37) rotate(2.7)" style="fill:#dbdbdb"></rect><rect x="295.22" y="225.85" width="3.78" height="0.3" transform="translate(56.84 511.69) rotate(-87.19)" style="fill:#fff"></rect><polygon points="299 226.24 295.22 226.06 295.23 225.76 299.01 225.94 299 226.24" style="fill:#fff"></polygon><rect x="295.22" y="225.85" width="3.78" height="0.3" transform="translate(-74.86 257.49) rotate(-42.1)" style="fill:#fff"></rect><polygon points="298.27 227.5 295.73 224.7 295.95 224.5 298.5 227.3 298.27 227.5" style="fill:#fff"></polygon><rect x="299.77" y="226.08" width="3.78" height="0.3" transform="translate(60.93 516.45) rotate(-87.19)" style="fill:#fff"></rect><polygon points="303.54 226.47 299.76 226.28 299.78 225.98 303.56 226.17 303.54 226.47" style="fill:#fff"></polygon><rect x="299.77" y="226.08" width="3.78" height="0.3" transform="translate(-73.83 260.6) rotate(-42.1)" style="fill:#fff"></rect><rect x="301.51" y="224.33" width="0.3" height="3.78" transform="translate(-73.8 260.97) rotate(-42.15)" style="fill:#fff"></rect><rect x="304.31" y="226.3" width="3.78" height="0.3" transform="translate(65.03 521.2) rotate(-87.19)" style="fill:#fff"></rect><polygon points="308.09 226.7 304.31 226.51 304.32 226.21 308.1 226.4 308.09 226.7" style="fill:#fff"></polygon><rect x="304.31" y="226.3" width="3.78" height="0.3" transform="translate(-72.81 263.71) rotate(-42.1)" style="fill:#fff"></rect><rect x="306.06" y="224.56" width="0.3" height="3.78" transform="translate(-72.78 264.08) rotate(-42.15)" style="fill:#fff"></rect><rect x="308.86" y="226.53" width="3.78" height="0.3" transform="translate(69.13 525.96) rotate(-87.19)" style="fill:#fff"></rect><polygon points="312.63 226.92 308.85 226.73 308.87 226.44 312.65 226.62 312.63 226.92" style="fill:#fff"></polygon><rect x="308.86" y="226.53" width="3.78" height="0.3" transform="translate(-71.79 266.81) rotate(-42.1)" style="fill:#fff"></rect><rect x="310.6" y="224.79" width="0.3" height="3.78" transform="translate(-71.75 267.19) rotate(-42.15)" style="fill:#fff"></rect><rect x="318.78" y="227.02" width="3.78" height="0.3" transform="translate(78.07 536.34) rotate(-87.19)" style="fill:#fff"></rect><polygon points="322.56 227.41 318.78 227.23 318.79 226.93 322.57 227.12 322.56 227.41" style="fill:#fff"></polygon><rect x="318.78" y="227.02" width="3.78" height="0.3" transform="translate(-69.56 273.59) rotate(-42.1)" style="fill:#fff"></rect><rect x="320.52" y="225.28" width="0.3" height="3.78" transform="translate(-69.52 273.97) rotate(-42.15)" style="fill:#fff"></rect><rect x="323.33" y="227.25" width="3.78" height="0.3" transform="translate(82.17 541.09) rotate(-87.19)" style="fill:#fff"></rect><polygon points="327.1 227.64 323.32 227.45 323.34 227.15 327.12 227.34 327.1 227.64" style="fill:#fff"></polygon><rect x="323.33" y="227.25" width="3.78" height="0.3" transform="translate(-68.54 276.7) rotate(-42.1)" style="fill:#fff"></rect><rect x="325.07" y="225.51" width="0.3" height="3.78" transform="translate(-68.49 277.08) rotate(-42.15)" style="fill:#fff"></rect><rect x="327.87" y="227.47" width="3.78" height="0.3" transform="translate(86.27 545.85) rotate(-87.19)" style="fill:#fff"></rect><polygon points="331.65 227.87 327.87 227.68 327.88 227.38 331.66 227.57 331.65 227.87" style="fill:#fff"></polygon><polygon points="328.46 229 328.26 228.78 331.07 226.24 331.27 226.47 328.46 229" style="fill:#fff"></polygon><rect x="329.62" y="225.73" width="0.3" height="3.78" transform="translate(-67.47 280.16) rotate(-42.15)" style="fill:#fff"></rect><rect x="332.42" y="227.7" width="3.78" height="0.3" transform="translate(90.37 550.6) rotate(-87.19)" style="fill:#fff"></rect><polygon points="336.19 228.09 332.41 227.91 332.43 227.6 336.21 227.79 336.19 228.09" style="fill:#fff"></polygon><rect x="332.42" y="227.7" width="3.78" height="0.3" transform="translate(-66.5 282.91) rotate(-42.1)" style="fill:#fff"></rect><rect x="334.16" y="225.96" width="0.3" height="3.78" transform="translate(-66.44 283.3) rotate(-42.15)" style="fill:#fff"></rect><rect x="342.34" y="228.19" width="3.78" height="0.3" transform="translate(99.31 560.98) rotate(-87.19)" style="fill:#fff"></rect><polygon points="346.12 228.59 342.34 228.4 342.35 228.1 346.13 228.29 346.12 228.59" style="fill:#fff"></polygon><rect x="342.34" y="228.19" width="3.78" height="0.3" transform="translate(-64.27 289.69) rotate(-42.1)" style="fill:#fff"></rect><rect x="344.08" y="226.45" width="0.3" height="3.78" transform="translate(-64.21 290.09) rotate(-42.15)" style="fill:#fff"></rect><rect x="346.89" y="228.42" width="3.78" height="0.3" transform="translate(103.41 565.74) rotate(-87.19)" style="fill:#fff"></rect><polygon points="350.66 228.81 346.88 228.63 346.9 228.32 350.68 228.51 350.66 228.81" style="fill:#fff"></polygon><rect x="346.89" y="228.42" width="3.78" height="0.3" transform="translate(-63.25 292.79) rotate(-42.1)" style="fill:#fff"></rect><rect x="348.63" y="226.68" width="0.3" height="3.78" transform="translate(-63.18 293.2) rotate(-42.15)" style="fill:#fff"></rect><rect x="351.43" y="228.64" width="3.78" height="0.3" transform="translate(107.51 570.49) rotate(-87.19)" style="fill:#fff"></rect><polygon points="355.21 229.04 351.43 228.85 351.44 228.55 355.22 228.74 355.21 229.04" style="fill:#fff"></polygon><polygon points="352.02 230.18 351.82 229.95 354.63 227.41 354.83 227.64 352.02 230.18" style="fill:#fff"></polygon><rect x="353.18" y="226.9" width="0.3" height="3.78" transform="translate(-62.17 296.27) rotate(-42.15)" style="fill:#fff"></rect><rect x="355.98" y="228.87" width="3.78" height="0.3" transform="translate(111.6 575.25) rotate(-87.19)" style="fill:#fff"></rect><polygon points="359.75 229.26 355.98 229.08 355.99 228.78 359.77 228.96 359.75 229.26" style="fill:#fff"></polygon><polygon points="356.57 230.4 356.37 230.18 359.17 227.64 359.38 227.86 356.57 230.4" style="fill:#fff"></polygon><rect x="357.72" y="227.13" width="0.3" height="3.78" transform="translate(-61.13 299.42) rotate(-42.15)" style="fill:#fff"></rect><rect x="365.9" y="229.36" width="3.78" height="0.3" transform="translate(120.55 585.63) rotate(-87.19)" style="fill:#fff"></rect><polygon points="369.68 229.76 365.9 229.57 365.91 229.27 369.69 229.46 369.68 229.76" style="fill:#fff"></polygon><rect x="365.9" y="229.36" width="3.78" height="0.3" transform="translate(-58.97 305.79) rotate(-42.1)" style="fill:#fff"></rect><rect x="367.64" y="227.62" width="0.3" height="3.78" transform="translate(-58.9 306.2) rotate(-42.15)" style="fill:#fff"></rect><rect x="370.45" y="229.59" width="3.78" height="0.3" transform="translate(124.65 590.39) rotate(-87.19)" style="fill:#fff"></rect><polygon points="374.22 229.98 370.44 229.79 370.46 229.5 374.24 229.68 374.22 229.98" style="fill:#fff"></polygon><rect x="370.45" y="229.59" width="3.78" height="0.3" transform="translate(-57.95 308.89) rotate(-42.1)" style="fill:#fff"></rect><rect x="372.19" y="227.85" width="0.3" height="3.78" transform="translate(-57.88 309.31) rotate(-42.15)" style="fill:#fff"></rect><rect x="374.99" y="229.82" width="3.78" height="0.3" transform="translate(128.74 595.14) rotate(-87.19)" style="fill:#fff"></rect><polygon points="378.77 230.21 374.99 230.02 375 229.72 378.78 229.91 378.77 230.21" style="fill:#fff"></polygon><rect x="375" y="229.82" width="3.78" height="0.3" transform="translate(-56.93 312) rotate(-42.1)" style="fill:#fff"></rect><polygon points="378.05 231.47 375.5 228.66 375.73 228.46 378.27 231.27 378.05 231.47" style="fill:#fff"></polygon><rect x="379.54" y="230.04" width="3.78" height="0.3" transform="translate(132.84 599.9) rotate(-87.19)" style="fill:#fff"></rect><polygon points="383.31 230.44 379.54 230.25 379.55 229.95 383.33 230.13 383.31 230.44" style="fill:#fff"></polygon><rect x="379.54" y="230.04" width="3.78" height="0.3" transform="translate(-55.91 315.1) rotate(-42.1)" style="fill:#fff"></rect><polygon points="382.59 231.69 380.05 228.89 380.27 228.69 382.81 231.49 382.59 231.69" style="fill:#fff"></polygon><circle cx="389.22" cy="259.35" r="11.34" style="fill:#008D6A"></circle><rect x="384.19" y="257.97" width="10.07" height="7.88" style="fill:#fff"></rect><path d="M393.25,256.38h-1v-.93a3,3,0,0,0-6,0v4.08h-1v-4.08a4,4,0,0,1,8.05,0Z" style="fill:#fff"></path><path d="M389.65,261.39l.42,2h-1.79l.42-2a.89.89,0,0,1-.42-.75.9.9,0,1,1,1.79,0A.89.89,0,0,1,389.65,261.39Z" style="fill:#008D6A"></path></g><g id="freepik--Icon--inject-8"><g id="freepik--65yqnltif--inject-8"><path d="M305.84,153.35H301a5.62,5.62,0,0,0-.7-.1,51.76,51.76,0,0,1-14.1-2.75,52.29,52.29,0,0,1-24.55-17.24c-10-12.61-13.63-26.94-11-42.78a51.53,51.53,0,0,1,14.67-28.34,52.83,52.83,0,0,1,36.38-15.93A50.26,50.26,0,0,1,316,47.68a53,53,0,0,1,29.37,18.77A52.47,52.47,0,0,1,356.69,94c.12,1.12.21,2.24.31,3.36v4.82c0,.21-.08.42-.09.64a50.72,50.72,0,0,1-2,11.6,53.17,53.17,0,0,1-23.22,30.81,51.89,51.89,0,0,1-22.59,7.8C308,153.15,306.94,153.24,305.84,153.35ZM326.1,73.92a68.44,68.44,0,0,1,5,24h22.15a49.67,49.67,0,0,0-12.52-31.19c-2.45,1.35-4.76,2.73-7.17,3.92S328.63,72.81,326.1,73.92Zm-60-7.19a49.78,49.78,0,0,0-12.48,31.16h22.17a68.84,68.84,0,0,1,5-24c-2.54-1.11-5.07-2.1-7.5-3.29S268.51,68.07,266.06,66.73Zm75.54,65.15a49.83,49.83,0,0,0,11.68-30.23H331.12a68.7,68.7,0,0,1-4.45,22.53A69.44,69.44,0,0,1,341.6,131.88Zm-88-30.24a49.54,49.54,0,0,0,11.54,30.05c2.5-1.42,4.88-2.89,7.38-4.17s5.07-2.33,7.63-3.5a68.8,68.8,0,0,1-4.39-22.38Zm48-24.07a69.6,69.6,0,0,1-17.23-2.65,64.64,64.64,0,0,0-4.88,23h22.11Zm25.86,20.32a64.48,64.48,0,0,0-4.94-23,69.16,69.16,0,0,1-17.16,2.65V97.89Zm-25.86,3.76H279.45A64.71,64.71,0,0,0,283.68,123a68.93,68.93,0,0,1,17.88-2.89Zm3.75,18.46A67.75,67.75,0,0,1,323.18,123a64.46,64.46,0,0,0,4.23-21.35h-22.1Zm-23.73,7.42a64.53,64.53,0,0,0-13.86,7A49.24,49.24,0,0,0,281,144.31c4.8,2.4,13.24,5,15.68,4.8A68.93,68.93,0,0,1,281.58,127.53Zm57.5,7.14a66,66,0,0,0-13.86-7,70,70,0,0,1-15,21.45A49.67,49.67,0,0,0,339.08,134.67Zm-37.54,13.84V123.85c-3.43-.24-14.48,1.52-16.41,2.62A64.58,64.58,0,0,0,301.54,148.51Zm3.77,0a64.75,64.75,0,0,0,16.38-22c-3-1.27-13.77-3-16.38-2.67Zm-23-78.14a70.05,70.05,0,0,1,14.32-20,49.62,49.62,0,0,0-27.86,13.49A64.87,64.87,0,0,0,282.33,70.39Zm42.19,0c3-.74,11.75-5,13.46-6.56A49.4,49.4,0,0,0,310.24,50.4,70.25,70.25,0,0,1,324.52,70.35Zm-38.64,1.14a64.35,64.35,0,0,0,15.67,2.38V51A64.71,64.71,0,0,0,285.88,71.49Zm19.43,2.38a64.11,64.11,0,0,0,15.62-2.36A65.76,65.76,0,0,0,305.31,51Z" style="fill:#008D6A"></path></g><g id="freepik--65yqnltif--inject-8" style="opacity:0.7000000000000001"><path d="M305.84,153.35H301a5.62,5.62,0,0,0-.7-.1,51.76,51.76,0,0,1-14.1-2.75,52.29,52.29,0,0,1-24.55-17.24c-10-12.61-13.63-26.94-11-42.78a51.53,51.53,0,0,1,14.67-28.34,52.83,52.83,0,0,1,36.38-15.93A50.26,50.26,0,0,1,316,47.68a53,53,0,0,1,29.37,18.77A52.47,52.47,0,0,1,356.69,94c.12,1.12.21,2.24.31,3.36v4.82c0,.21-.08.42-.09.64a50.72,50.72,0,0,1-2,11.6,53.17,53.17,0,0,1-23.22,30.81,51.89,51.89,0,0,1-22.59,7.8C308,153.15,306.94,153.24,305.84,153.35ZM326.1,73.92a68.44,68.44,0,0,1,5,24h22.15a49.67,49.67,0,0,0-12.52-31.19c-2.45,1.35-4.76,2.73-7.17,3.92S328.63,72.81,326.1,73.92Zm-60-7.19a49.78,49.78,0,0,0-12.48,31.16h22.17a68.84,68.84,0,0,1,5-24c-2.54-1.11-5.07-2.1-7.5-3.29S268.51,68.07,266.06,66.73Zm75.54,65.15a49.83,49.83,0,0,0,11.68-30.23H331.12a68.7,68.7,0,0,1-4.45,22.53A69.44,69.44,0,0,1,341.6,131.88Zm-88-30.24a49.54,49.54,0,0,0,11.54,30.05c2.5-1.42,4.88-2.89,7.38-4.17s5.07-2.33,7.63-3.5a68.8,68.8,0,0,1-4.39-22.38Zm48-24.07a69.6,69.6,0,0,1-17.23-2.65,64.64,64.64,0,0,0-4.88,23h22.11Zm25.86,20.32a64.48,64.48,0,0,0-4.94-23,69.16,69.16,0,0,1-17.16,2.65V97.89Zm-25.86,3.76H279.45A64.71,64.71,0,0,0,283.68,123a68.93,68.93,0,0,1,17.88-2.89Zm3.75,18.46A67.75,67.75,0,0,1,323.18,123a64.46,64.46,0,0,0,4.23-21.35h-22.1Zm-23.73,7.42a64.53,64.53,0,0,0-13.86,7A49.24,49.24,0,0,0,281,144.31c4.8,2.4,13.24,5,15.68,4.8A68.93,68.93,0,0,1,281.58,127.53Zm57.5,7.14a66,66,0,0,0-13.86-7,70,70,0,0,1-15,21.45A49.67,49.67,0,0,0,339.08,134.67Zm-37.54,13.84V123.85c-3.43-.24-14.48,1.52-16.41,2.62A64.58,64.58,0,0,0,301.54,148.51Zm3.77,0a64.75,64.75,0,0,0,16.38-22c-3-1.27-13.77-3-16.38-2.67Zm-23-78.14a70.05,70.05,0,0,1,14.32-20,49.62,49.62,0,0,0-27.86,13.49A64.87,64.87,0,0,0,282.33,70.39Zm42.19,0c3-.74,11.75-5,13.46-6.56A49.4,49.4,0,0,0,310.24,50.4,70.25,70.25,0,0,1,324.52,70.35Zm-38.64,1.14a64.35,64.35,0,0,0,15.67,2.38V51A64.71,64.71,0,0,0,285.88,71.49Zm19.43,2.38a64.11,64.11,0,0,0,15.62-2.36A65.76,65.76,0,0,0,305.31,51Z" style="fill:#fff"></path></g></g><g id="freepik--Password--inject-8"><rect x="86" y="139.05" width="120.34" height="18.24" style="fill:#fff"></rect><path d="M206.84,157.79H85.5V138.55H206.84Zm-120.34-1H205.84V139.55H86.5Z" style="fill:#ebebeb"></path><rect x="105.71" y="144.29" width="1" height="8.35" style="fill:#37474f"></rect><rect x="102.03" y="147.97" width="8.35" height="1" style="fill:#37474f"></rect><rect x="102.03" y="147.97" width="8.35" height="1" transform="translate(-73.88 118.59) rotate(-45)" style="fill:#37474f"></rect><rect x="105.71" y="144.29" width="1" height="8.35" transform="translate(-73.88 118.59) rotate(-45)" style="fill:#37474f"></rect><rect x="119.88" y="144.29" width="1" height="8.35" style="fill:#37474f"></rect><rect x="116.21" y="147.97" width="8.35" height="1" style="fill:#37474f"></rect><rect x="116.21" y="147.97" width="8.35" height="1" transform="translate(-69.72 128.61) rotate(-45)" style="fill:#37474f"></rect><rect x="119.89" y="144.29" width="1" height="8.35" transform="translate(-69.72 128.61) rotate(-45)" style="fill:#37474f"></rect><rect x="134.06" y="144.29" width="1" height="8.35" style="fill:#37474f"></rect><rect x="130.39" y="147.97" width="8.35" height="1" style="fill:#37474f"></rect><rect x="130.38" y="147.97" width="8.35" height="1" transform="translate(-65.57 138.64) rotate(-45)" style="fill:#37474f"></rect><rect x="134.06" y="144.29" width="1" height="8.35" transform="translate(-65.57 138.64) rotate(-45)" style="fill:#37474f"></rect><rect x="148.24" y="144.29" width="1" height="8.35" style="fill:#37474f"></rect><rect x="144.56" y="147.97" width="8.35" height="1" style="fill:#37474f"></rect><rect x="144.56" y="147.97" width="8.35" height="1" transform="translate(-61.42 148.66) rotate(-45)" style="fill:#37474f"></rect><rect x="148.24" y="144.29" width="1" height="8.35" transform="translate(-61.42 148.65) rotate(-45)" style="fill:#37474f"></rect><rect x="162.42" y="144.29" width="1" height="8.35" style="fill:#37474f"></rect><rect x="158.74" y="147.97" width="8.35" height="1" style="fill:#37474f"></rect><rect x="158.74" y="147.97" width="8.35" height="1" transform="translate(-57.27 158.69) rotate(-45)" style="fill:#37474f"></rect><rect x="162.42" y="144.29" width="1" height="8.35" transform="translate(-57.27 158.68) rotate(-45)" style="fill:#37474f"></rect><rect x="176.59" y="144.29" width="1" height="8.35" style="fill:#37474f"></rect><rect x="172.92" y="147.97" width="8.35" height="1" style="fill:#37474f"></rect><rect x="172.92" y="147.97" width="8.35" height="1" transform="translate(-53.11 168.71) rotate(-45)" style="fill:#37474f"></rect><rect x="176.59" y="144.29" width="1" height="8.35" transform="translate(-53.11 168.7) rotate(-45)" style="fill:#37474f"></rect><path d="M94.12,148.17a11.34,11.34,0,1,1-11.33-11.33A11.34,11.34,0,0,1,94.12,148.17Z" style="fill:#008D6A"></path><rect x="77.75" y="146.79" width="10.07" height="7.88" style="fill:#fff"></rect><path d="M86.81,145.21h-1v-.94a3,3,0,0,0-6,0v4.08h-1v-4.08a4,4,0,0,1,8,0Z" style="fill:#fff"></path><path d="M83.21,150.22l.42,2H81.84l.43-2a.89.89,0,1,1,1.36-.76A.9.9,0,0,1,83.21,150.22Z" style="fill:#008D6A"></path></g><g id="freepik--Shield--inject-8"><path d="M310.68,125.31s-8.87,71-23.43,86.93C269.76,231.4,257.07,228.6,250,238.48c0,0,0,0,0,0-7.06-9.89-19.75-7.07-37.25-26.25-14.57-16-23.42-86.93-23.42-86.93C227.71,106.68,250,85.79,250,85.79l0,0C250.69,86.45,272.89,107,310.68,125.31Z" style="fill:#008D6A"></path><path d="M250,85.81V238.48s0,0,0,0c-7.06-9.89-19.75-7.07-37.25-26.25-14.57-16-23.42-86.93-23.42-86.93C227.71,106.68,250,85.79,250,85.79Z" style="opacity:0.2"></path><path d="M310.68,125.31s-8.87,71-23.43,86.93C269.76,231.4,257.07,228.6,250,238.48V85.81C250.69,86.45,272.89,107,310.68,125.31Z" style="opacity:0.1"></path><path d="M301.26,131s-7.48,59.95-19.79,73.44C266.69,220.68,256,218.3,250,226.64c-6-8.34-16.69-6-31.48-22.17C206.21,191,198.74,131,198.74,131,231.16,115.28,250,97.64,250,97.64S268.84,115.28,301.26,131Z" style="fill:#008D6A"></path><path d="M250.37,98V226.15a5.85,5.85,0,0,0-.38.49c-6-8.34-16.69-6-31.48-22.17C206.21,191,198.74,131,198.74,131,231.17,115.28,250,97.64,250,97.64Z" style="opacity:0.1"></path><rect x="231.55" y="159.7" width="36.9" height="28.86" style="fill:#fff"></rect><path d="M264.76,153.88H261v-3.41a11,11,0,0,0-22,0v14.95h-3.75V150.47a14.76,14.76,0,0,1,29.51,0Z" style="fill:#fff"></path><path d="M251.56,172.24l1.54,7.33h-6.55l1.54-7.33a3.28,3.28,0,1,1,3.47,0Z" style="fill:#008D6A"></path></g><g id="freepik--Character--inject-8"><path d="M161.26,291.82c9.62,41.86,29.52,92,38,100.18,10.74,10.3,81.83,29.19,85.38,29.57,8.78.89,31.22-58.44,21.87-59.79-14.24-2.06-70.83-8.75-73.94-11.94s-25.06-30.87-47.52-62C169.56,266.34,155.3,265.85,161.26,291.82Z" style="fill:#eb9481"></path><path d="M276.11,418.1c1,.49,14.63,7.37,23.09,9.82,6.31,1.83,24.61,6.6,27.31-.14,1.85-4.6-8.58-8.67-15.89-11.72-3.86-1.6-8.6-5.64-7.47-8.11,2-4.33,11.9,0,18.42,3.81,12.61,7.32,29.41,20.51,37.11,14.11,2.91-2.42-.47-6.82-5.42-11.14,8,5,16.59,9.16,19.93,6.6,1.91-1.45,2-3.45.93-5.74,2.48.81,4.67.65,6.2-1,2.61-2.73,1.34-6.76-1.52-10.89a3.1,3.1,0,0,0,2.37-1.56c5.52-8.42-22.12-32.6-31.69-34.87-28.13-6.68-57.77-5.44-57.77-5.44C280.66,370.7,276.09,418.09,276.11,418.1Z" style="fill:#eb9481"></path><path d="M317.48,392.21a47.78,47.78,0,0,1,18.76,7.22c7.13,4.71,11.86,10.22,17.85,15.77.15.14-.07.39-.23.24-2.85-2.63-14.66-12.55-17.71-14.8a45.58,45.58,0,0,0-18.7-8.32C317.38,392.31,317.4,392.2,317.48,392.21Z" style="fill:#263238"></path><path d="M322.72,380.27c7.39,2,15,4.07,21.83,7.56,7.51,3.83,13.39,10.07,19.17,16.07q5.2,5.42,10.16,11.05c.14.16-.07.41-.22.25q-8.79-9.31-18.14-18.07a60.05,60.05,0,0,0-19.91-12.55c-4.23-1.61-8.58-2.9-12.92-4.18A.07.07,0,0,1,322.72,380.27Z" style="fill:#263238"></path><path d="M330.62,369.83c7.18,1.48,13.45,2.74,19.81,6.59,8.42,5.09,16.55,13.68,19.4,16.73C373,396.51,376,400,379,403.48c.12.15-.12.36-.25.22A237.54,237.54,0,0,0,356.83,382a47.38,47.38,0,0,0-12.25-8,84.92,84.92,0,0,0-14-4.15S330.58,369.83,330.62,369.83Z" style="fill:#263238"></path><path d="M289.63,354.49l-21.87,69.26s-59.19-16.9-70-28.57S167,323.28,161.11,294.09,170,265.62,183.56,284s47.35,63,49.24,64S289.63,354.49,289.63,354.49Z" style="fill:#008D6A"></path><path d="M262.09,393c2.64-8.17,5.36-16.31,7.7-24.58,1.33-4.69,2.69-9.38,4-14.09.05-.18-.25-.29-.31-.11-3,8.09-6,16.21-8.57,24.43s-5.26,16.35-7.76,24.57c-1.41,4.67-2.68,9.37-3.82,14.13,0,.09.13.15.17.06C256.73,409.39,259.42,401.2,262.09,393Z" style="fill:#263238"></path><path d="M237.91,414.23l-2.62-.92c-4.93-1.76-10-3.65-14.69-5.59-.62-.24-1.22-.49-1.81-.74-.95-.39-1.9-.8-2.82-1.2l-1.38-.6-.49-.22-1.42-.66c-1.88-.86-3.66-1.73-5.32-2.6l-1.15-.61a41.16,41.16,0,0,1-7.3-4.8c-.21-.19-.42-.37-.6-.56a7.12,7.12,0,0,1-.55-.55c-10.82-11.66-30.78-71.89-36.65-101.09-.07-.34-.14-.68-.2-1l0-.22c-.4-2.22-.75-5-1-7.93v0c-.82-14.53,6.05-16.9,14.55-10.51C195.66,319.85,228.1,394.94,237.91,414.23Z" style="opacity:0.1"></path><path d="M210.33,441.15H65.71c.11-3.11,20.76-94.41,37.17-128.1,21-43.19,31.9-46.66,38.38-49,8.29-3,23.05-1.5,26.56.15,4,1.85,16.62,24,21.16,40.16C198.08,336.9,212.37,439.17,210.33,441.15Z" style="fill:#008D6A"></path><path d="M164,335.2s-6.68,1.41-9.62-2.12c-3.68-4.41-2.31-13.31-.18-17.78,2.5-5.2,10.31-8.78,16.52-8.41s9.09,2.47,10.7,3.86c2.56,2.19,6.27,11.72,3.69,17.06s-6,5.41-8.67,6.16c0,0,.4,6.17-.6,8.66-.41,1-9.24,1.81-10.22,1S164,335.2,164,335.2Z" style="fill:#fff"></path><path d="M168.08,344h-.25c0-.31-.07-.63-.12-1l-.15-1.36-.14-1.37q-.07-.69-.12-1.38l-.06-.69,0-.68c0-.46,0-.92,0-1.39,0,.47.11.92.17,1.37l.18,1.37c.06.45.11.91.17,1.37l.15,1.37L168,343C168,343.32,168.05,343.65,168.08,344Z" style="fill:#263238"></path><path d="M171.18,343.8l-.26,0c0-.15,0-.29,0-.44l-.13-1.47-.12-1.48c0-.49-.07-1-.1-1.47l-.09-1.48,0-.73c0-.13,0-.25,0-.37v-.19l0-.18,0,.18,0,.18.06.37c0,.24.06.48.1.73.07.49.12,1,.18,1.47s.1,1,.14,1.47l.13,1.47.12,1.48Z" style="fill:#263238"></path><path d="M174.09,343.36l-.24.05q0-.42-.06-.84l-.12-1.45-.21-2.9c-.07-1-.14-1.92-.26-2.88.06.23.12.47.16.71s.09.48.13.71l.1.72c0,.24.07.49.1.73s.05.47.08.72,0,.48.07.72c0,.48.09,1,.12,1.45s.06,1,.1,1.45Z" style="fill:#263238"></path><path d="M173.07,331.66a.9.9,0,0,1-.29.54,1,1,0,0,1-.55.24,1.45,1.45,0,0,0,.47-.32,1,1,0,0,0,.23-.49,1.15,1.15,0,0,0,0-.19.79.79,0,0,1-.14.23c-1,1.07-2.24-1.09-2.24-1.09s-.55,2.26-1.75,1.67a.69.69,0,0,1-.28-.25.5.5,0,0,0,0,.12,1.66,1.66,0,0,0,.15.33,1,1,0,0,0,.23.27,1.11,1.11,0,0,0,.68.27,1.05,1.05,0,0,1-.74-.19,1.16,1.16,0,0,1-.45-.64,1.68,1.68,0,0,1,0-.77l0-.14a6.34,6.34,0,0,1,1.82-3.15c.31-.28,2.36,1.44,2.72,2.71h0a1.13,1.13,0,0,1,.08.24A1.38,1.38,0,0,1,173.07,331.66Z" style="fill:#263238"></path><path d="M170.24,332.22a.88.88,0,0,1-.3.34.79.79,0,0,1-.44.14,1.6,1.6,0,0,1-.23,0l-.21-.08h.22a.75.75,0,0,0,.21,0,.73.73,0,0,0,.37-.14,1.5,1.5,0,0,0,.5-.65A1,1,0,0,1,170.24,332.22Z" style="fill:#263238"></path><path d="M160.35,310.56c-.42.33-.84.68-1.23,1s-.78.73-1.15,1.12a14.76,14.76,0,0,0-1,1.19c-.17.21-.32.42-.48.64l-.21.32a4,4,0,0,0-.22.34,18.55,18.55,0,0,0-2.32,5.9,11.18,11.18,0,0,1,.6-3.17,14,14,0,0,1,.59-1.52,12.5,12.5,0,0,1,.77-1.44,12.2,12.2,0,0,1,2.07-2.51,15.18,15.18,0,0,1,1.25-1A10.92,10.92,0,0,1,160.35,310.56Z" style="fill:#008D6A"></path><path d="M158.21,313.6a5.07,5.07,0,0,1,.77-1.12,7.82,7.82,0,0,1,1-.92,8.52,8.52,0,0,1,1.13-.75c.2-.11.41-.2.61-.29l.63-.24c-.18.13-.38.24-.56.36l-.28.18-.28.19-.27.18-.27.2c-.19.12-.36.26-.53.39-.35.28-.68.56-1,.86S158.51,313.26,158.21,313.6Z" style="fill:#008D6A"></path><path d="M160.79,310.29a1.8,1.8,0,0,1,.49-.38,1.31,1.31,0,0,1,.6-.18,5.54,5.54,0,0,1-.53.3A3.57,3.57,0,0,1,160.79,310.29Z" style="fill:#008D6A"></path><path d="M160.06,321.65c1.09-.23,6.1,1,5.91,5.52s-2.24,6-4.41,6.08a5.72,5.72,0,0,1-5.93-6C155.67,323.14,157.85,322.13,160.06,321.65Z" style="fill:#008D6A"></path><path d="M176.86,321.24a4.33,4.33,0,0,1,5.47,3.42c.51,2.74-.7,5.57-3.13,5.91-3,.43-5.34-2.37-5.45-4.76C173.6,322.51,176.86,321.24,176.86,321.24Z" style="fill:#008D6A"></path><path d="M182.45,326.91a5.85,5.85,0,0,1-.52,1.63,4.46,4.46,0,0,1-.45.73,3.91,3.91,0,0,1-.61.61,3.56,3.56,0,0,1-1.54.65,3.4,3.4,0,0,0,1.44-.76,3.57,3.57,0,0,0,.9-1.34,5.52,5.52,0,0,0,.28-1,4.09,4.09,0,0,1-3.8,2.31,4.92,4.92,0,0,1-2.4-.63,2.79,2.79,0,0,0,.32.28,2.85,2.85,0,0,0,.55.35,3,3,0,0,0,.61.24,4.14,4.14,0,0,0,1.32.11,4.08,4.08,0,0,1-1.35,0,3.9,3.9,0,0,1-.67-.18,3.26,3.26,0,0,1-.62-.31,4.25,4.25,0,0,1-1-.94,5.57,5.57,0,0,1-.4-.59,3.8,3.8,0,0,1-.31-.64h0a4.24,4.24,0,0,1-.49-2c0-2.49,1.63-5.29,4.89-5.08a4.56,4.56,0,0,1,4,4.89h0a6.3,6.3,0,0,1,0,.87A8.39,8.39,0,0,1,182.45,326.91Z" style="fill:#263238"></path><path d="M163,332.13a3,3,0,0,1-.81.38,3.4,3.4,0,0,1-.89.16,4.27,4.27,0,0,1-1.77-.27,8.85,8.85,0,0,0,.88.12,8.61,8.61,0,0,0,.88,0,5.2,5.2,0,0,0,.87-.12l.21-.06.21-.06C162.74,332.25,162.87,332.18,163,332.13Z" style="fill:#263238"></path><path d="M165.85,328.7a8.27,8.27,0,0,1-.45,1.81,4.82,4.82,0,0,1-1,1.58,4,4,0,0,1-.72.59,4.16,4.16,0,0,1-.83.38,3.56,3.56,0,0,0,1.44-1.06,4.76,4.76,0,0,0,.8-1.59l.09-.33a5.68,5.68,0,0,1-8,.92,5.25,5.25,0,0,0,.38.58,4,4,0,0,0,.49.52,4.81,4.81,0,0,0,.57.44,4.07,4.07,0,0,0,1.36.51,3.81,3.81,0,0,1-1.43-.39,3.54,3.54,0,0,1-.64-.39,4.44,4.44,0,0,1-.56-.5,5.69,5.69,0,0,1-.88-1.24c-.12-.23-.22-.46-.32-.7a4.92,4.92,0,0,1-.23-.71,7.1,7.1,0,0,1-.32-2.87c.22-3.14,2.62-4.83,5.56-4.73,1,0,4.78.76,4.8,5.57a8.5,8.5,0,0,1-.07,1Z" style="fill:#263238"></path><path d="M122,276.66C98.16,297.5,37.05,379.55,52,397.17s109.16,5.51,136.25-4.18c8.06-2.89-16.29-53.79-25.21-55.82-7.43-1.7-47.68,12-48.57,9.67-1-2.63,7-20.47,19.63-52.95C148.69,256.44,132.53,267.45,122,276.66Z" style="fill:#eb9481"></path><path d="M202.82,325.57c19-.71,23.92,2,39.6-7.07,10.28-6,18.51-1.95,11.92,8.52-10.77,17.12-35,23.16-44,22.84Z" style="fill:#eb9481"></path><path d="M151.35,338.52s22.18-9.53,42.3-12.28c13.92-1.9,44.65-2.66,70.64,30.22,6.17,7.8,9.42,23.29-5.27,14.21-10.44-6.45-15.11-13.7-21.87-16.35,0,0,1.8,20.19-6.25,26.07a184.66,184.66,0,0,1-22.15,13.84,39.19,39.19,0,0,1-3-3.91s-8,4.77-22,2Z" style="fill:#eb9481"></path><path d="M207.22,326.55c6.15,4,19,12.83,27.09,23.69,8.93,12.06,22.89,37.71,13.92,44.21-6.58,4.77-12.77-4.55-12.77-4.55s3.53,11.81-3.35,14.82c-6.27,2.74-10.63-4.76-10.63-4.76s.91,7.54-5.64,9c-7.88,1.78-8.5-14.31-18-19.4C195.66,388.42,207.22,326.55,207.22,326.55Z" style="fill:#eb9481"></path><path d="M220,357.56c5.16,4.75,14.11,18.55,15.6,32.05,0,.31-.18.5-.27.23a147.15,147.15,0,0,0-15.45-32.2C219.83,357.57,219.93,357.5,220,357.56Z" style="fill:#263238"></path><path d="M208.07,366.93c4,4.56,12.62,19.19,13.67,32.93,0,.31-.21.48-.29.21A158,158,0,0,0,208,367,.07.07,0,0,1,208.07,366.93Z" style="fill:#263238"></path><path d="M237.17,354.2c5.91,2.41,9.56,5.8,14.34,9.89a83.1,83.1,0,0,0,7.34,5.77c2.35,1.59,5.8,4,8.65,2.16,1.59-1,1.79-3.15,1.63-4.86a24.42,24.42,0,0,0-2.64-7.27c-.05-.09.1-.18.15-.09a34.63,34.63,0,0,1,3,6.54,8.22,8.22,0,0,1,.07,4.81c-1.24,3.27-5.24,3.31-7.95,2.1a27.4,27.4,0,0,1-4.56-2.81c-1.39-1-2.73-2.06-4.05-3.15-2.69-2.25-5.26-4.66-7.93-6.94a79.91,79.91,0,0,0-8.19-6A.12.12,0,0,1,237.17,354.2Z" style="fill:#263238"></path><path d="M247.75,376.92c-1.23-3.63-8.29-19-10.72-22.59a.09.09,0,0,1,.14-.1c4.29,5,10.7,17.7,12.09,21.71s2.91,9,2.48,13.22c-.65,6.37-5,7.14-6.58,7.3a8.31,8.31,0,0,1-5.33-1.44,16.78,16.78,0,0,1-4.44-5.11c0-.09.08-.2.14-.11,1.95,2.73,5.36,5.58,8.87,5.48a5.84,5.84,0,0,0,4.15-1.73,7.6,7.6,0,0,0,1.54-5C250.16,384.55,249,380.65,247.75,376.92Z" style="fill:#263238"></path><path d="M151.35,338.52l23.17,65S56.69,417.65,48.78,396.59s44.81-95,67.29-115.82c26.05-24.11,28.12-14.8,20.59,8.15-7.89,24-21.9,58.53-21.9,58.53Z" style="fill:#008D6A"></path><path d="M78.07,360.39a135.53,135.53,0,0,1,17.8-8.16,131.76,131.76,0,0,1,18.6-5.36c3.6-.79,7.22-1.42,10.85-2.06a.09.09,0,0,1,0,.17,169.15,169.15,0,0,0-18.76,5.19q-9.2,3-18.26,6.38c-3.42,1.27-6.78,2.7-10.16,4.08C78,360.7,77.92,360.47,78.07,360.39Z" style="fill:#263238"></path><path d="M151.06,338.31c-.59.09-33.15,7.3-34.23,7.68.18-.47,7.53-16.65,8.62-19,.11-.24.21-.48.32-.71.68-1,1.37-2.07,2-3.13l2.46-4.1s0-.09-.07-.05c-.87,1.33-1.75,2.65-2.62,4-.41.61-.79,1.24-1.17,1.87.73-1.68,1.44-3.36,2.15-5.05,1.13-2.7,2.17-5.42,3.21-8.16,0-.08-.1-.13-.14,0-2.17,4.71-4.48,9.36-6.66,14.07s-10.49,22-10.44,22,35.94-8.72,36.64-8.94A.22.22,0,0,0,151.06,338.31Z" style="fill:#263238"></path><path d="M149.09,378.94c-2.54-7.24-5-14.51-7.84-21.66-1.59-4.06-3.17-8.13-4.8-12.18-.06-.15-.33-.07-.28.09,2.26,7.37,4.54,14.76,7.14,22s5.11,14.48,7.79,21.68C152.63,393,154.27,397,156,401c0,.08.17,0,.15,0C154.17,393.52,151.65,386.24,149.09,378.94Z" style="fill:#263238"></path><path d="M175.91,404.59c-1-2-2.14-4.92-3.19-6.9-.27-.53-.66-.46-.45.08.7,1.82,1.23,3.84,1.92,5.7-1.65.16-3.3.28-4.95.46l-5.73.61q-5.59.57-11.22,1-11.37.93-22.77,1.38a439.11,439.11,0,0,1-45.75-.35c-4.25-.27-8.51-.63-12.75-1.12a125.36,125.36,0,0,1-12.47-1.87c-.11,0-.15.16,0,.2a70.92,70.92,0,0,0,10.76,2.52q5.73.87,11.51,1.4c7.66.69,15.37,1,23.06,1,15.26.15,30.54-.37,45.75-1.49q6.41-.48,12.79-1.1c2.14-.21,4.29-.42,6.43-.67S176.07,404.93,175.91,404.59Z" style="fill:#263238"></path><path d="M193.26,270.46c-6.89,7-14.92,10-18.43,14.7s-4.58,13.59-4.58,13.59-2.09-9.6-6.23-14.26-19.54-17.79-19.53-23.28,2.8-24.08,9.06-30c3.27-3.12,22.52-3.63,36.74-1,8.9,1.63,13.46,4.62,13.8,6.05C207.36,249.67,199.9,263.7,193.26,270.46Z" style="fill:#008D6A"></path><path d="M193.26,270.46c-6.89,7-14.92,10-18.43,14.7s-4.58,13.59-4.58,13.59-2.09-9.6-6.23-14.26-19.54-17.79-19.53-23.28,2.8-24.08,9.06-30c3.27-3.12,22.52-3.63,36.74-1,8.9,1.63,13.46,4.62,13.8,6.05C207.36,249.67,199.9,263.7,193.26,270.46Z" style="opacity:0.2"></path><path d="M153.55,231.17c-6.26,6-9.05,24.54-9.06,30,0,1.66,1.41,4,3.5,6.65-4-4.56-12.24-12.14-13.56-14.63s10.39-20.88,22.13-23.44A7.23,7.23,0,0,0,153.55,231.17Z" style="fill:#008D6A"></path><path d="M153.55,231.17c-6.26,6-9.05,24.54-9.06,30,0,1.66,1.41,4,3.5,6.65-4-4.56-12.24-12.14-13.56-14.63s10.39-20.88,22.13-23.44A7.23,7.23,0,0,0,153.55,231.17Z" style="opacity:0.2"></path><path d="M167.66,299.7c-8.84,1.22-22.42-13.42-27.26-24.69-.33-.78,1.54-8.41,3.37-17.79,1.09-5.7,2.17-12.07,2.73-18,.11-1.2,36.05,12.51,36.05,12.51s-4.81,12-5.74,22.25a14.1,14.1,0,0,0,0,2.44c0,.11,0,.25,0,.4C177.16,281.52,176.21,298.52,167.66,299.7Z" style="fill:#eb9481"></path><path d="M148.76,239.64c.75,10.11,4.64,34.73,24.29,37.07a22.63,22.63,0,0,0,3.79.15,1.38,1.38,0,0,0,0-.41,15,15,0,0,1,0-2.43c.93-10.28,5.75-22.26,5.75-22.26S156.63,241.87,148.76,239.64Z" style="fill:#263238"></path><path d="M155.7,193c-8,11.18-13.48,49.39-7.31,60.39,8.94,16,29.61,24.12,44.68,12,14.6-11.75,20.89-61.68,13.44-72.29C195.53,177.46,167.5,176.48,155.7,193Z" style="fill:#eb9481"></path><path d="M182.46,227.94c0-.1-.22.1-.22.2-.21,2.6-.88,5.53-3.31,6.13-.08,0-.08.15,0,.15C181.83,234.33,182.68,230.43,182.46,227.94Z" style="fill:#263238"></path><path d="M180.45,225c-4.12-.77-5.37,7.53-1.55,8.25S183.9,225.63,180.45,225Z" style="fill:#263238"></path><path d="M196.84,230.17c0-.09.18.16.16.26-.46,2.56-.57,5.57,1.63,6.77.07,0,0,.17,0,.14C195.81,236.52,196,232.52,196.84,230.17Z" style="fill:#263238"></path><path d="M199.54,227.83c4.18.31,3.26,8.65-.61,8.37S196,227.58,199.54,227.83Z" style="fill:#263238"></path><path d="M177.5,221.17a32.75,32.75,0,0,0,3.1,1.5c1.2.56,2.1,1.13,3.46.92a1.77,1.77,0,0,0,1.32-1.72c-.09-1.68-1.39-2.73-2.8-3.46a6.48,6.48,0,0,0-4.62-.67A1.89,1.89,0,0,0,177.5,221.17Z" style="fill:#263238"></path><path d="M204.26,222.35a31.75,31.75,0,0,1-3.17-1.35c-1.21-.54-2.23-.84-3-2a1.78,1.78,0,0,1,.42-2.13c1.33-1,3-.74,4.45-.16a6.44,6.44,0,0,1,3.54,3A1.89,1.89,0,0,1,204.26,222.35Z" style="fill:#263238"></path><path d="M174.58,251.18c.52.7,1,1.62,1.93,1.84a7,7,0,0,0,2.87-.23.09.09,0,0,1,.09.14,3.5,3.5,0,0,1-3.48.91,2.79,2.79,0,0,1-1.68-2.58C174.3,251.11,174.5,251.08,174.58,251.18Z" style="fill:#263238"></path><path d="M178.44,243.89a8.79,8.79,0,0,0,5.26,4.77,11,11,0,0,0,3.12.62,3.16,3.16,0,0,0,.61,0H188a.64.64,0,0,0,.6-.5v0a1.13,1.13,0,0,0,0-.26v0l0-.23c.35-2,.61-5,.61-5,.67.47,4.11,2.68,4.21,1.64.77-8.64,1.64-18.25.58-27a.24.24,0,0,0-.48,0c-1.07,8.27-.68,16.68-1.63,25A15.46,15.46,0,0,0,188,241c-.29,0-.4,5.88-.63,6.76a.19.19,0,0,1,0,.09c-3.39-.08-5.74-1.46-8.64-4.17C178.54,243.52,178.31,243.66,178.44,243.89Z" style="fill:#263238"></path><path d="M209.64,211.54c-.13-1.75-.95-11.14-3.72-11.91-3.06-.85-5.48,2.49-11.37,2.33s-10.57-7.4-17.65-5.29c-4.3,1.28-7.39,4.29-10.79,13.93-3.3,9.36-8.58,19.92-20.14,20.53.95-14.58,4.81-32.86,9.66-39.65,11.8-16.53,39.79-15.2,50.77.44C208.67,195.15,209.77,203.21,209.64,211.54Z" style="fill:#263238"></path><path d="M157.19,227.35s-2.38-14.79-8.73-14.47-8.29,19.17-3.47,24.21a6.65,6.65,0,0,0,9.58.66Z" style="fill:#eb9481"></path><path d="M148,218.3c-.09-.06-.18.07-.11.14,3.32,3.67,3.64,8.55,3.24,13.26-.49-2.13-1.76-3.77-4.51-3.3-.14,0-.12.24,0,.27a4.1,4.1,0,0,1,3.43,3.25,19.83,19.83,0,0,1,.35,4.22c0,.46.78.59.84.09a.37.37,0,0,0,0-.11C154,230.91,153.43,221.56,148,218.3Z" style="fill:#263238"></path><path d="M211.58,205.84c-3.6-20.17-20-32.47-41.57-32.47-32.73,0-58.82,56.16-55.7,75.45,2.83,17.45,18.61,22.2,21.11,24.2,5.82,4.66,10.77,13.53,17.13,20.78,5.27,6,19,7.89,19,7.89.2-3.08-.37-3.37,7.34-11.7,8.52-9.21,19.44-13.23,24.56-20.51C214.05,254.39,214.73,223.54,211.58,205.84Zm-18.32,64.62c-6.89,7-14.92,10-18.43,14.7s-4.58,13.59-4.58,13.59-2.09-9.6-6.23-14.26c-2.87-3.23-11.23-10.6-16-16.63l0,0c-4.05-4.56-12.22-12.12-13.54-14.6s10.36-20.83,22.08-23.43h.05c6.74-1.82,22-1.8,33.73.37,8.9,1.63,13.46,4.62,13.8,6.05C207.36,249.67,199.9,263.7,193.26,270.46Z" style="fill:#008D6A"></path><path d="M129.46,269.88a14.63,14.63,0,0,0,2.6,1.21,24.12,24.12,0,0,1,2.63,1.23,11.37,11.37,0,0,1,2.36,1.73,28.3,28.3,0,0,1,2,2.16c2.49,2.93,4.81,6,7.2,9l3.57,4.51c1.19,1.49,2.38,3,3.67,4.36a24.4,24.4,0,0,0,9.73,5.67,20.43,20.43,0,0,1-5.53-1.73,17.25,17.25,0,0,1-4.84-3.3,112.68,112.68,0,0,1-7.35-8.93l-7-9.14c-.59-.75-1.18-1.52-1.82-2.19a13,13,0,0,0-2.19-1.77,20.91,20.91,0,0,0-2.5-1.38A13,13,0,0,1,129.46,269.88Z" style="fill:#263238"></path><path d="M174.31,295.12a34.35,34.35,0,0,1,4.41-5.62c.83-.85,1.69-1.69,2.6-2.46a17.29,17.29,0,0,1,2.94-2.07c-1.61,1.77-3.18,3.51-4.81,5.22A68.5,68.5,0,0,1,174.31,295.12Z" style="fill:#263238"></path><path d="M131.65,273.62a10.09,10.09,0,0,1,4,1.51,9.9,9.9,0,0,1,1.71,1.39,16.5,16.5,0,0,1,1.31,1.74,31.79,31.79,0,0,0,2.67,3.25c.47.52,1,1,1.49,1.5a14.33,14.33,0,0,0,1.63,1.36,13.22,13.22,0,0,1-3.53-2.45,19.73,19.73,0,0,1-2.88-3.23,15.88,15.88,0,0,0-1.21-1.69,11.9,11.9,0,0,0-1.52-1.4,11.42,11.42,0,0,0-1.76-1.12A13.46,13.46,0,0,0,131.65,273.62Z" style="fill:#263238"></path><path d="M135.71,248.82a30.85,30.85,0,0,0-1.06,3.3,33.19,33.19,0,0,0-.72,3.34,6,6,0,0,0-.08.82,1.5,1.5,0,0,0,.14.69,6.11,6.11,0,0,0,.89,1.38,9.35,9.35,0,0,0,2.51,2.3,6.68,6.68,0,0,1-2.95-1.91,6,6,0,0,1-1.09-1.47,2,2,0,0,1-.23-1,6.86,6.86,0,0,1,.07-.92,17.24,17.24,0,0,1,.91-3.42A13,13,0,0,1,135.71,248.82Z" style="fill:#263238"></path><path d="M204.09,236.21a12.88,12.88,0,0,1,2.76,5.15c.31.93.54,1.89.76,2.84.11.48.19,1,.28,1.45a5.73,5.73,0,0,1,.09,1.56,23.49,23.49,0,0,1-1.5,5.72,43.13,43.13,0,0,1-2.39,5.33l1.65-5.57a32.23,32.23,0,0,0,1.24-5.55,10.72,10.72,0,0,0-.3-2.75c-.16-.95-.37-1.88-.58-2.82s-.47-1.85-.79-2.76A11,11,0,0,0,204.09,236.21Z" style="fill:#263238"></path><circle cx="164.35" cy="295" r="1.29" style="opacity:0.2"></circle><path d="M163.75,295.16a38.45,38.45,0,0,1,2.06,6.62,13.57,13.57,0,0,1,.37,4.79,26.35,26.35,0,0,1-1.09,4.1c-2.21,7-5.16,14.56-3.31,22,.19.78,1.4.45,1.21-.34-1.9-7.6,1.52-15.28,3.66-22.46a16,16,0,0,0,.37-8.42,39.24,39.24,0,0,0-2.06-6.61c-.31-.73-1.52-.41-1.21.33Z" style="fill:#263238"></path><path d="M175.39,293.41a1.3,1.3,0,1,1-1.29-1.29A1.3,1.3,0,0,1,175.39,293.41Z" style="opacity:0.2"></path><path d="M173.49,293.7a41.19,41.19,0,0,0,1.65,14.36,73.39,73.39,0,0,1,2.68,9.57c.63,3.36.94,7-.33,10.27-.29.75.92,1.08,1.21.33,1.19-3,1-6.41.55-9.58a59.6,59.6,0,0,0-2.59-10,42,42,0,0,1-1.92-14.94c0-.8-1.22-.8-1.25,0Z" style="fill:#263238"></path></g><g id="freepik--Devices--inject-8"><polygon points="331.54 446.42 256.25 446.42 256.25 440.57 331.54 438.13 331.54 446.42" style="fill:#37474f"></polygon><polygon points="407.42 419.47 268.83 419.47 290.87 316.29 429.46 316.29 407.42 419.47" style="fill:#455a64"></polygon><polygon points="412.55 419.47 273.95 419.47 295.99 316.29 434.59 316.29 412.55 419.47" style="fill:#37474f"></polygon><polygon points="337.8 382.47 334.55 382.47 339.48 359.33 342.73 359.33 337.8 382.47" style="fill:#263238"></polygon><polygon points="344.21 382.47 340.96 382.47 345.89 359.33 349.14 359.33 344.21 382.47" style="fill:#263238"></polygon><polygon points="350.62 382.47 347.37 382.47 352.31 359.33 355.56 359.33 350.62 382.47" style="fill:#263238"></polygon><polygon points="357.04 382.47 353.79 382.47 358.72 359.33 361.97 359.33 357.04 382.47" style="fill:#263238"></polygon><polygon points="363.45 382.47 360.2 382.47 365.13 359.33 368.38 359.33 363.45 382.47" style="fill:#263238"></polygon><polygon points="369.86 382.47 366.61 382.47 371.55 359.33 374.8 359.33 369.86 382.47" style="fill:#263238"></polygon><polygon points="376.28 382.47 373.03 382.47 377.96 359.33 381.21 359.33 376.28 382.47" style="fill:#263238"></polygon><polygon points="373.35 446.42 305.18 446.42 305.18 441.12 373.35 438.92 373.35 446.42" style="fill:#455a64"></polygon><polygon points="391.88 446.41 355.28 446.41 333.24 388.59 369.84 388.59 391.88 446.41" style="fill:#455a64"></polygon><polygon points="397.91 446.41 361.31 446.41 339.27 388.59 375.87 388.59 397.91 446.41" style="fill:#263238"></polygon><polygon points="92.58 419.47 135.35 419.47 113.31 316.29 70.54 316.29 92.58 419.47" style="fill:#455a64"></polygon><polygon points="87.45 419.47 130.23 419.47 108.19 316.29 65.41 316.29 87.45 419.47" style="fill:#37474f"></polygon><polygon points="93.28 382.47 93.89 382.47 88.95 359.33 88.35 359.33 93.28 382.47" style="fill:#263238"></polygon><polygon points="94.57 382.47 95.18 382.47 90.25 359.33 89.64 359.33 94.57 382.47" style="fill:#263238"></polygon><polygon points="95.87 382.47 96.48 382.47 91.54 359.33 90.93 359.33 95.87 382.47" style="fill:#263238"></polygon><polygon points="97.16 382.47 97.77 382.47 92.84 359.33 92.23 359.33 97.16 382.47" style="fill:#263238"></polygon><polygon points="98.46 382.47 99.06 382.47 94.13 359.33 93.52 359.33 98.46 382.47" style="fill:#263238"></polygon><polygon points="99.75 382.47 100.36 382.47 95.42 359.33 94.82 359.33 99.75 382.47" style="fill:#263238"></polygon><polygon points="101.04 382.47 101.65 382.47 96.72 359.33 96.11 359.33 101.04 382.47" style="fill:#263238"></polygon><polygon points="102.34 382.47 102.95 382.47 98.01 359.33 97.41 359.33 102.34 382.47" style="fill:#263238"></polygon><polygon points="86.63 446.42 137.79 446.42 137.79 441.12 86.63 438.92 86.63 446.42" style="fill:#455a64"></polygon><polygon points="68.1 446.41 87.69 446.41 109.74 388.59 90.14 388.59 68.1 446.41" style="fill:#455a64"></polygon><polygon points="68.1 446.41 81.67 446.41 103.71 388.59 90.14 388.59 68.1 446.41" style="fill:#263238"></polygon><path d="M249,446.47H199.3c-4.24,0,1.89-12.07,17.36-16.7S253.85,441.94,249,446.47Z" style="fill:#37474f"></path><path d="M229.48,446.47a15.36,15.36,0,0,1,2.23-7.91,13.32,13.32,0,0,1,2.68-3.21,11.24,11.24,0,0,1,3.56-2.09,20.9,20.9,0,0,0-3,2.66,17.69,17.69,0,0,0-2.36,3.16,25.16,25.16,0,0,0-1.78,3.56A36.71,36.71,0,0,0,229.48,446.47Z" style="fill:#263238"></path><path d="M235.36,435a27.82,27.82,0,0,1,8.36,4,16.5,16.5,0,0,1,3.45,3.18,7.09,7.09,0,0,1,1.8,4.29,9.06,9.06,0,0,0-2.38-3.78,24.51,24.51,0,0,0-3.45-2.88C240.67,438.05,238,436.54,235.36,435Z" style="fill:#263238"></path></g><g id="freepik--speech-bubble--inject-8"><path d="M466.13,320.35a38.78,38.78,0,0,1-64.79,24.53L382,347.72l9.7-16.77a38.78,38.78,0,1,1,74.48-10.6Z" style="fill:#fff"></path><path d="M466.13,320.35A39,39,0,0,1,458.3,340a45,45,0,0,1-3.51,4,43.71,43.71,0,0,1-4.1,3.47,39.31,39.31,0,0,1-19.79,7.69,38.66,38.66,0,0,1-5.38.11,35.68,35.68,0,0,1-5.37-.56A39.15,39.15,0,0,1,401,345.29l.46.14-19.38,3-1.41.22.71-1.24,9.65-16.8,0,.66a39.2,39.2,0,0,1,2.38-34.56,39.75,39.75,0,0,1,12.15-12.93,39.44,39.44,0,0,1,34.08-4.59,39.64,39.64,0,0,1,14.95,9.17A39,39,0,0,1,466.13,320.35Zm0,0a38.35,38.35,0,0,0-44-42,38.06,38.06,0,0,0-16,6.33,39.87,39.87,0,0,0-11.6,12.65,38.25,38.25,0,0,0-4.92,16.41,38.72,38.72,0,0,0,2.73,16.89l.14.34-.19.32-9.76,16.74-.69-1,19.41-2.72.27,0,.19.18A38.22,38.22,0,0,0,420.29,354a33.15,33.15,0,0,0,5.26.64,37.1,37.1,0,0,0,15.66-2.29,35.82,35.82,0,0,0,9.35-5,34.69,34.69,0,0,0,7.62-7.42A39,39,0,0,0,466.13,320.35Z" style="fill:#263238"></path><polygon points="427.55 291 402.05 335.18 453.06 335.18 427.55 291" style="fill:#008D6A"></polygon><polygon points="427.55 297.4 407.59 331.98 447.51 331.98 427.55 297.4" style="fill:#fff"></polygon><polygon points="425.53 307.41 429.57 307.41 429.3 322.31 425.8 322.31 425.53 307.41" style="fill:#008D6A"></polygon><rect x="425.8" y="324.18" width="3.5" height="3.5" style="fill:#008D6A"></rect></g><g id="freepik--Bugs--inject-8"><path d="M409.43,396.19l-19,7.42s.21.71.66,1.81c.17.38.36.82.58,1.28a26.56,26.56,0,0,0,1.85,3.4l.81,1.19a16.39,16.39,0,0,0,2.53,2.73,9.42,9.42,0,0,0,1.3,1,9,9,0,0,0,13.31-5.19,12.06,12.06,0,0,0,.31-1.61,17,17,0,0,0,0-3.71c-.07-.48-.13-1-.21-1.42a26.1,26.1,0,0,0-.94-3.76c-.15-.49-.3-.94-.45-1.33C409.75,396.86,409.43,396.19,409.43,396.19ZM405.66,413l-1.12.43L400,401.78l1.11-.44Z" style="fill:#008D6A"></path><path d="M408.91,394.74l-19.1,7.45c-1.46-3.73,1.16-8.81,6.72-11S407.46,391,408.91,394.74Z" style="fill:#008D6A"></path><polygon points="392.88 406.21 389.21 407.64 384.88 404.2 385.74 403.11 389.44 406.06 392.38 404.91 392.88 406.21" style="fill:#008D6A"></polygon><rect x="388.76" y="410.64" width="6.98" height="1.39" transform="translate(-122.63 170.61) rotate(-21.3)" style="fill:#008D6A"></rect><polygon points="394.12 419.47 392.82 418.98 394.32 415 398.6 413.33 399.1 414.63 395.4 416.07 394.12 419.47" style="fill:#008D6A"></polygon><polygon points="413.05 398.35 409.37 399.78 408.86 398.49 411.8 397.34 412.53 392.67 413.9 392.88 413.05 398.35" style="fill:#008D6A"></polygon><rect x="409.81" y="402.43" width="6.98" height="1.39" transform="translate(-118.21 177.69) rotate(-21.3)" style="fill:#008D6A"></rect><polygon points="417.44 410.38 414.19 408.75 410.49 410.19 409.98 408.89 414.26 407.22 418.06 409.13 417.44 410.38" style="fill:#008D6A"></polygon><polygon points="395.42 395.93 387.94 392.64 385.93 387.47 387.22 386.97 389.03 391.6 395.98 394.65 395.42 395.93" style="fill:#008D6A"></polygon><polygon points="400.54 393.93 399.27 393.37 402.32 386.42 400.51 381.79 401.81 381.28 403.82 386.45 400.54 393.93" style="fill:#008D6A"></polygon><path d="M310.65,379.08l-16-12.73s-.5.55-1.23,1.49c-.24.34-.52.72-.81,1.14a24.7,24.7,0,0,0-2,3.31c-.21.42-.42.86-.62,1.3a15.87,15.87,0,0,0-1.1,3.55,9.82,9.82,0,0,0-.19,1.61,8.94,8.94,0,0,0,11.17,8.91,11.28,11.28,0,0,0,1.54-.54,16.11,16.11,0,0,0,3.21-1.87c.38-.3.77-.59,1.12-.89a24.87,24.87,0,0,0,2.78-2.7c.35-.37.66-.73.92-1.06C310.23,379.69,310.65,379.08,310.65,379.08Zm-16.41,5.17-.93-.75,7.78-9.76.93.74Z" style="fill:#008D6A"></path><path d="M311.65,377.91l-16-12.79c2.5-3.13,8.21-3.42,12.88.3S314.14,374.78,311.65,377.91Z" style="fill:#008D6A"></path><polygon points="293.68 369.8 290.6 367.34 291.4 361.87 292.77 362.07 292.09 366.75 294.55 368.71 293.68 369.8" style="fill:#008D6A"></polygon><rect x="288.24" y="368.34" width="1.39" height="6.98" transform="translate(-181.92 365.94) rotate(-51.43)" style="fill:#008D6A"></rect><polygon points="282.83 377.52 282.61 376.15 286.8 375.46 290.39 378.32 289.52 379.41 286.42 376.93 282.83 377.52" style="fill:#008D6A"></polygon><polygon points="310.6 383.29 307.52 380.83 308.38 379.74 310.85 381.71 315.26 380 315.76 381.29 310.6 383.29" style="fill:#008D6A"></polygon><rect x="305.9" y="382.43" width="1.39" height="6.98" transform="translate(-186.28 385.06) rotate(-51.43)" style="fill:#008D6A"></rect><polygon points="302.4 393.13 302.18 389.5 299.08 387.02 299.94 385.94 303.53 388.8 303.79 393.04 302.4 393.13" style="fill:#008D6A"></polygon><polygon points="303.85 366.83 302.93 358.72 306.39 354.38 307.48 355.25 304.38 359.13 305.23 366.68 303.85 366.83" style="fill:#008D6A"></polygon><polygon points="308.14 370.26 307.99 368.88 315.53 368.03 318.63 364.14 319.72 365 316.26 369.34 308.14 370.26" style="fill:#008D6A"></polygon><path d="M361.76,328l12.42,16.2s.62-.41,1.56-1.15c.31-.26.68-.57,1.06-.91a24.26,24.26,0,0,0,2.75-2.73c.3-.35.61-.73.91-1.1a16.19,16.19,0,0,0,1.92-3.19,9.69,9.69,0,0,0,.58-1.52,8.94,8.94,0,0,0-8.69-11.33,11.33,11.33,0,0,0-1.63.14,16.76,16.76,0,0,0-3.56,1.05c-.45.19-.89.39-1.31.59a26.06,26.06,0,0,0-3.35,1.95q-.65.42-1.14.81A17.89,17.89,0,0,0,361.76,328ZM378.93,327l.72.95-9.91,7.6-.72-.95Z" style="fill:#008D6A"></path><path d="M360.5,328.93,373,345.2c-3.18,2.44-8.8,1.34-12.43-3.4S357.32,331.36,360.5,328.93Z" style="fill:#008D6A"></path><polygon points="375.99 341.13 378.39 344.26 376.29 349.38 375 348.85 376.8 344.47 374.88 341.97 375.99 341.13" style="fill:#008D6A"></polygon><rect x="380.39" y="336.81" width="1.39" height="6.98" transform="translate(-128.4 302.19) rotate(-37.49)" style="fill:#008D6A"></rect><polygon points="388.38 336.24 388.27 337.63 384.02 337.29 381.23 333.65 382.34 332.81 384.75 335.95 388.38 336.24" style="fill:#008D6A"></polygon><polygon points="362.81 323.95 365.22 327.08 364.11 327.93 362.2 325.43 357.5 326.03 357.33 324.65 362.81 323.95" style="fill:#008D6A"></polygon><rect x="366.64" y="318.88" width="1.39" height="6.98" transform="translate(-120.33 290.13) rotate(-37.49)" style="fill:#008D6A"></rect><polygon points="373.14 316.38 372.48 319.96 374.9 323.11 373.8 323.96 371 320.31 371.78 316.13 373.14 316.38" style="fill:#008D6A"></polygon><polygon points="365.4 341.55 364.34 349.65 359.93 353.03 359.08 351.93 363.03 348.9 364.02 341.37 365.4 341.55" style="fill:#008D6A"></polygon><polygon points="362.06 337.19 361.88 338.57 354.35 337.58 350.4 340.61 349.56 339.5 353.96 336.13 362.06 337.19" style="fill:#008D6A"></polygon></g></svg>